<svg width="183" height="41" viewBox="0 0 183 41" fill="none" xmlns="http://www.w3.org/2000/svg">
<path d="M54.872 30V13.08H57.968V20.136H66.632V13.08H69.728V30H66.632V22.704H57.968V30H54.872ZM79.0739 30.24C77.0419 30.24 75.4499 29.68 74.2979 28.56C73.1459 27.44 72.5699 25.904 72.5699 23.952C72.5699 22.688 72.8179 21.584 73.3139 20.64C73.8099 19.696 74.4979 18.96 75.3779 18.432C76.2739 17.904 77.3139 17.64 78.4979 17.64C79.6659 17.64 80.6419 17.888 81.4259 18.384C82.2099 18.88 82.8019 19.576 83.2019 20.472C83.6179 21.368 83.8259 22.416 83.8259 23.616V24.408H74.9939V22.824H81.6899L81.2819 23.16C81.2819 22.04 81.0419 21.184 80.5619 20.592C80.0979 20 79.4179 19.704 78.5219 19.704C77.5299 19.704 76.7619 20.056 76.2179 20.76C75.6899 21.464 75.4259 22.448 75.4259 23.712V24.024C75.4259 25.336 75.7459 26.32 76.3859 26.976C77.0419 27.616 77.9619 27.936 79.1459 27.936C79.8339 27.936 80.4739 27.848 81.0659 27.672C81.6739 27.48 82.2499 27.176 82.7939 26.76L83.6819 28.776C83.1059 29.24 82.4179 29.6 81.6179 29.856C80.8179 30.112 79.9699 30.24 79.0739 30.24ZM91.0464 30.24C89.9904 30.24 89.0624 29.992 88.2624 29.496C87.4624 28.984 86.8384 28.256 86.3904 27.312C85.9424 26.368 85.7184 25.24 85.7184 23.928C85.7184 22.616 85.9424 21.496 86.3904 20.568C86.8384 19.624 87.4624 18.904 88.2624 18.408C89.0624 17.896 89.9904 17.64 91.0464 17.64C92.0704 17.64 92.9664 17.896 93.7344 18.408C94.5184 18.904 95.0384 19.576 95.2944 20.424H95.0304L95.2944 17.88H98.1744C98.1264 18.376 98.0784 18.88 98.0304 19.392C97.9984 19.904 97.9824 20.408 97.9824 20.904V30H95.0064L94.9824 27.504H95.2704C95.0144 28.336 94.4944 29 93.7104 29.496C92.9264 29.992 92.0384 30.24 91.0464 30.24ZM91.8864 27.936C92.8304 27.936 93.5904 27.608 94.1664 26.952C94.7424 26.28 95.0304 25.272 95.0304 23.928C95.0304 22.584 94.7424 21.584 94.1664 20.928C93.5904 20.272 92.8304 19.944 91.8864 19.944C90.9424 19.944 90.1824 20.272 89.6064 20.928C89.0304 21.584 88.7424 22.584 88.7424 23.928C88.7424 25.272 89.0224 26.28 89.5824 26.952C90.1584 27.608 90.9264 27.936 91.8864 27.936ZM101.249 30V12.336H104.249V30H101.249ZM112.691 30.24C111.251 30.24 110.163 29.864 109.427 29.112C108.691 28.36 108.323 27.232 108.323 25.728V20.136H105.995V17.88H108.323V14.784L111.323 14.016V17.88H114.563V20.136H111.323V25.536C111.323 26.368 111.483 26.952 111.803 27.288C112.123 27.624 112.563 27.792 113.123 27.792C113.427 27.792 113.683 27.768 113.891 27.72C114.115 27.672 114.331 27.608 114.539 27.528V29.904C114.267 30.016 113.963 30.096 113.627 30.144C113.307 30.208 112.995 30.24 112.691 30.24ZM116.601 30V12.336H119.601V20.304H119.265C119.633 19.44 120.201 18.784 120.969 18.336C121.737 17.872 122.617 17.64 123.609 17.64C125.049 17.64 126.121 18.048 126.825 18.864C127.529 19.664 127.881 20.888 127.881 22.536V30H124.881V22.68C124.881 21.736 124.697 21.056 124.329 20.64C123.977 20.208 123.409 19.992 122.625 19.992C121.713 19.992 120.977 20.28 120.417 20.856C119.873 21.416 119.601 22.168 119.601 23.112V30H116.601ZM139.174 30.24C137.414 30.24 135.902 29.888 134.638 29.184C133.39 28.464 132.43 27.456 131.758 26.16C131.086 24.848 130.75 23.304 130.75 21.528C130.75 19.752 131.086 18.216 131.758 16.92C132.43 15.624 133.39 14.624 134.638 13.92C135.902 13.2 137.414 12.84 139.174 12.84C140.358 12.84 141.422 13.008 142.366 13.344C143.326 13.68 144.15 14.176 144.838 14.832L143.83 17.28C143.078 16.672 142.35 16.24 141.646 15.984C140.958 15.712 140.166 15.576 139.27 15.576C137.558 15.576 136.246 16.096 135.334 17.136C134.438 18.16 133.99 19.624 133.99 21.528C133.99 23.432 134.438 24.904 135.334 25.944C136.246 26.984 137.558 27.504 139.27 27.504C140.166 27.504 140.958 27.376 141.646 27.12C142.35 26.848 143.078 26.4 143.83 25.776L144.838 28.224C144.15 28.864 143.326 29.36 142.366 29.712C141.422 30.064 140.358 30.24 139.174 30.24ZM151.75 30.24C150.694 30.24 149.766 29.992 148.965 29.496C148.166 28.984 147.542 28.256 147.094 27.312C146.646 26.368 146.422 25.24 146.422 23.928C146.422 22.616 146.646 21.496 147.094 20.568C147.542 19.624 148.166 18.904 148.965 18.408C149.766 17.896 150.694 17.64 151.75 17.64C152.774 17.64 153.67 17.896 154.438 18.408C155.222 18.904 155.742 19.576 155.998 20.424H155.734L155.998 17.88H158.878C158.83 18.376 158.782 18.88 158.734 19.392C158.702 19.904 158.686 20.408 158.686 20.904V30H155.71L155.686 27.504H155.974C155.718 28.336 155.198 29 154.414 29.496C153.63 29.992 152.742 30.24 151.75 30.24ZM152.59 27.936C153.534 27.936 154.294 27.608 154.87 26.952C155.446 26.28 155.734 25.272 155.734 23.928C155.734 22.584 155.446 21.584 154.87 20.928C154.294 20.272 153.534 19.944 152.59 19.944C151.646 19.944 150.886 20.272 150.31 20.928C149.734 21.584 149.446 22.584 149.446 23.928C149.446 25.272 149.726 26.28 150.286 26.952C150.862 27.608 151.63 27.936 152.59 27.936ZM161.928 30V20.976C161.928 20.464 161.912 19.944 161.88 19.416C161.864 18.888 161.824 18.376 161.76 17.88H164.664L165 21.192H164.52C164.68 20.392 164.944 19.728 165.312 19.2C165.696 18.672 166.16 18.28 166.704 18.024C167.248 17.768 167.84 17.64 168.48 17.64C168.768 17.64 169 17.656 169.176 17.688C169.352 17.704 169.528 17.744 169.704 17.808L169.68 20.448C169.376 20.32 169.112 20.24 168.888 20.208C168.68 20.176 168.416 20.16 168.096 20.16C167.408 20.16 166.824 20.304 166.344 20.592C165.88 20.88 165.528 21.28 165.288 21.792C165.064 22.304 164.952 22.888 164.952 23.544V30H161.928ZM177.043 30.24C175.011 30.24 173.419 29.68 172.267 28.56C171.115 27.44 170.539 25.904 170.539 23.952C170.539 22.688 170.787 21.584 171.283 20.64C171.779 19.696 172.467 18.96 173.347 18.432C174.243 17.904 175.283 17.64 176.467 17.64C177.635 17.64 178.611 17.888 179.395 18.384C180.179 18.88 180.771 19.576 181.171 20.472C181.587 21.368 181.795 22.416 181.795 23.616V24.408H172.963V22.824H179.659L179.251 23.16C179.251 22.04 179.011 21.184 178.531 20.592C178.067 20 177.387 19.704 176.491 19.704C175.499 19.704 174.731 20.056 174.187 20.76C173.659 21.464 173.395 22.448 173.395 23.712V24.024C173.395 25.336 173.715 26.32 174.355 26.976C175.011 27.616 175.931 27.936 177.115 27.936C177.803 27.936 178.443 27.848 179.035 27.672C179.643 27.48 180.219 27.176 180.763 26.76L181.651 28.776C181.075 29.24 180.387 29.6 179.587 29.856C178.787 30.112 177.939 30.24 177.043 30.24Z" fill="#233348"/>
<circle cx="20.5" cy="20.5" r="20.5" fill="#458FF6"/>
<path d="M19.344 31V15.426H13.286V12.67H28.756V15.426H22.698V31H19.344Z" fill="white"/>
</svg>
